PathFileType	4	(X/Y/Z)	s06c0001.trc
DataRate	CameraRate	NumFrames	NumMarkers	Units	OrigDataRate	OrigDataStartFrame	OrigNumFrames
200	200	5	49	mm	200	1500	2000
Frame#	Time	racr			lacr			c7			jug			rlel			rdr			llel			ldr			s2			lic			ric			lasi			rasi			rpsi			lpsi			rgt			lgt			rth1			rth2			rth3			rth4			rlfc			rmfc			rsh1			rsh2			rsh3			rsh4			rlmal			rmmal			rcal			rtoe			rmt5			rmt1			lth1			lth2			lth4			lth3			llfc			lmfc			llmal			lmmal			lcal			lmt1			lmt5			lsh1			lsh2			lsh3			lsh4			ltoe			
		X1	Y1	Z1	X2	Y2	Z2	X3	Y3	Z3	X4	Y4	Z4	X5	Y5	Z5	X6	Y6	Z6	X7	Y7	Z7	X8	Y8	Z8	X9	Y9	Z9	X10	Y10	Z10	X11	Y11	Z11	X12	Y12	Z12	X13	Y13	Z13	X14	Y14	Z14	X15	Y15	Z15	X16	Y16	Z16	X17	Y17	Z17	X18	Y18	Z18	X19	Y19	Z19	X20	Y20	Z20	X21	Y21	Z21	X22	Y22	Z22	X23	Y23	Z23	X24	Y24	Z24	X25	Y25	Z25	X26	Y26	Z26	X27	Y27	Z27	X28	Y28	Z28	X29	Y29	Z29	X30	Y30	Z30	X31	Y31	Z31	X32	Y32	Z32	X33	Y33	Z33	X34	Y34	Z34	X35	Y35	Z35	X36	Y36	Z36	X37	Y37	Z37	X38	Y38	Z38	X39	Y39	Z39	X40	Y40	Z40	X41	Y41	Z41	X42	Y42	Z42	X43	Y43	Z43	X44	Y44	Z44	X45	Y45	Z45	X46	Y46	Z46	X47	Y47	Z47	X48	Y48	Z48	X49	Y49	Z49	
1500	7.5000	220.790451	1419.606689	397.597992	221.414413	1430.164917	42.536926	182.572189	1490.889771	217.286697	305.152313	1396.750977	222.783295	245.539917	1204.141235	577.467957	353.598297	1050.134399	767.917297	228.186249	1208.176514	-129.152603	325.929871	1071.984375	-330.186920	108.750717	964.476440	230.824966	259.879578	1009.161682	50.917633	272.685150	987.473572	387.932068	312.886047	956.280396	79.563759	325.722443	946.262878	349.464661	132.512726	998.346375	258.221436	118.787918	995.580200	194.543533	235.807297	872.150269	400.978241	238.529343	897.301575	27.706179	246.466293	750.113708	420.197510	255.543594	660.522888	413.577484	219.848602	582.328735	400.046570	292.026306	656.385681	404.043304	202.861588	473.514893	380.341217	217.984192	450.410278	272.215271	172.867737	353.166534	401.915497	187.040710	267.649872	381.885925	158.982635	186.362015	370.515259	215.583328	269.920288	354.554169	154.587708	99.727295	358.439484	199.744965	121.976929	273.305176	109.487282	65.653938	297.096832	382.075592	75.670197	334.584137	280.626892	43.315292	392.329010	303.912018	59.789799	277.006012	222.925797	764.435547	11.913960	237.678268	678.432678	16.915462	274.178711	675.197571	25.327351	206.090179	595.690247	29.039854	178.577332	477.126099	49.741196	200.001068	455.792786	159.543549	154.371750	99.086494	56.010906	170.856445	121.889816	140.986740	100.982880	58.833233	110.497505	310.709045	52.469524	132.911346	289.936615	51.107410	17.828085	156.975510	370.619598	23.935570	175.154068	285.869598	36.858841	148.626968	201.856476	37.996964	205.967010	286.487732	61.384243	380.313080	71.712959	69.485504	
1501	7.5050	220.767120	1419.596436	397.593353	221.401138	1430.170044	42.522427	182.562668	1490.883301	217.270538	305.144653	1396.737183	222.772430	245.553116	1204.138428	577.464783	353.623779	1050.143311	767.900940	228.144928	1208.186035	-129.141205	325.885498	1071.985474	-330.183807	108.741318	964.467712	230.820480	259.843445	1009.166260	50.912647	272.694641	987.453247	387.927338	312.855865	956.264893	79.563583	325.714905	946.257935	349.452301	132.537323	998.319580	258.227142	118.777740	995.583679	194.544312	235.789261	872.141418	400.972412	238.509933	897.288818	27.714682	246.455444	750.092407	420.208160	255.520279	660.531128	413.584839	219.854218	582.313293	400.037262	292.003784	656.392761	404.046082	202.869095	473.513031	380.334503	217.970718	450.408813	272.224243	172.853088	353.178162	401.907013	187.053040	267.655945	381.873596	158.991714	186.347061	370.507721	215.560638	269.886505	354.535736	154.602234	99.713997	358.443970	199.744797	121.977715	273.305237	109.503067	65.633430	297.121521	382.077026	75.687050	334.589355	280.645660	43.306602	392.337921	303.896973	59.802887	276.985535	222.912277	764.429260	11.914662	237.667953	678.421204	16.920469	274.157928	675.192017	25.340425	206.090927	595.687073	29.042324	178.583359	477.123383	49.749313	200.000061	455.795380	159.544037	154.367950	99.115036	56.015812	170.858643	121.895996	140.968658	100.971123	58.836365	110.499260	310.724579	52.471428	132.905350	289.935638	51.101208	17.830851	156.977066	370.626099	23.921629	175.155304	285.875763	36.870224	148.630890	201.866562	38.007812	205.979828	286.482513	61.396557	380.309357	71.723625	69.476364	
1502	7.5100	220.756378	1419.609131	397.594086	221.390015	1430.167480	42.527351	182.535782	1490.881592	217.293579	305.123383	1396.744263	222.784576	245.548126	1204.137329	577.462891	353.646027	1050.138672	767.888855	228.109970	1208.186279	-129.146759	325.839630	1071.976929	-330.184357	108.733025	964.472046	230.833481	259.828491	1009.167358	50.919609	272.671234	987.450073	387.936646	312.829376	956.273315	79.543388	325.692383	946.308167	349.502869	132.524338	998.311646	258.234589	118.788376	995.502808	194.529663	235.780258	872.134155	400.961700	238.488220	897.293213	27.708702	246.435394	750.104614	420.191162	255.519897	660.519287	413.587769	219.845383	582.309448	400.044037	292.003632	656.399902	404.044983	202.853760	473.510437	380.342743	217.971329	450.404358	272.238464	172.854950	353.176239	401.914886	187.036819	267.688568	381.889832	159.006561	186.378998	370.513489	215.581024	269.913361	354.545776	154.579178	99.708878	358.440186	199.750107	121.989853	273.317780	109.487244	65.640236	297.106812	382.073059	75.675209	334.569397	280.641388	43.294247	392.334564	303.891144	59.798134	276.969971	222.888138	764.442627	11.915431	237.656570	678.435913	16.911777	274.152405	675.183228	25.353403	206.062012	595.691284	29.036020	178.585495	477.120880	49.757565	199.996826	455.798004	159.555252	154.367477	99.118004	56.004971	170.860031	121.887619	140.979538	100.984612	58.826534	110.494308	310.720001	52.469582	132.921951	289.931610	51.105602	17.831083	156.966232	370.633331	23.921703	175.160049	285.877319	36.859440	148.627045	201.855591	38.000149	205.961426	286.494110	61.371002	380.313232	71.728638	69.494675	
1503	7.5150	220.737625	1419.602661	397.611969	221.338760	1430.165405	42.543179	182.508392	1490.882446	217.283432	305.092041	1396.755493	222.771820	245.550323	1204.146484	577.463806	353.670532	1050.146851	767.893677	228.085968	1208.193726	-129.145844	325.794220	1071.979126	-330.190704	108.709213	964.467468	230.830734	259.767944	1009.181274	50.909939	272.652557	987.454407	387.932678	312.795105	956.281067	79.558769	325.684753	946.311218	349.495239	132.495819	998.333252	258.240753	118.758781	995.501526	194.530365	235.759766	872.138428	400.975159	238.468658	897.292480	27.720070	246.426620	750.104187	420.198395	255.506836	660.529846	413.599945	219.840515	582.316406	400.049286	291.980560	656.389526	404.049377	202.852600	473.507080	380.353058	217.955276	450.394287	272.241577	172.841293	353.171173	401.922791	187.041412	267.668030	381.883087	158.970169	186.378952	370.507507	215.564850	269.887177	354.543304	154.589142	99.719589	358.443054	199.734299	121.997169	273.317871	109.503647	65.631409	297.104858	382.084991	75.684807	334.592010	280.645477	43.320431	392.325989	303.898804	59.794598	276.997437	222.856125	764.443665	11.898213	237.639954	678.434021	16.913523	274.138092	675.204834	25.323483	206.052109	595.694946	29.057577	178.567032	477.125916	49.747025	199.985641	455.812622	159.547668	154.366638	99.094246	56.005894	170.854553	121.897026	140.978241	100.975266	58.831493	110.503731	310.736176	52.480640	132.925476	289.948212	51.102940	17.830736	156.951508	370.637390	23.908184	175.141373	285.881073	36.863682	148.653595	201.812195	38.018402	205.983124	286.490540	61.401775	380.309998	71.721230	69.493889	
1504	7.5200	220.716827	1419.600830	397.613739	221.307892	1430.162964	42.557060	182.481522	1490.880859	217.306488	305.060364	1396.735596	222.793076	245.552689	1204.133545	577.463074	353.686584	1050.152710	767.880615	228.051453	1208.186279	-129.124847	325.759888	1071.988403	-330.171936	108.698891	964.463501	230.831284	259.749451	1009.182922	50.925430	272.625946	987.441650	387.943451	312.772552	956.280823	79.573303	325.668213	946.299011	349.501465	132.485275	998.341675	258.248047	118.742905	995.511475	194.535599	235.747223	872.133728	400.971649	238.453094	897.295288	27.727203	246.396576	750.114258	420.211853	255.495514	660.525330	413.587677	219.830154	582.325317	400.057861	291.971741	656.404175	404.058594	202.856857	473.492706	380.345642	217.962662	450.394745	272.248657	172.845627	353.166595	401.926971	187.050888	267.675903	381.884094	158.968521	186.359131	370.523376	215.579483	269.898254	354.551208	154.594086	99.723747	358.431274	199.729095	121.972527	273.328461	109.487267	65.653923	297.096832	382.072296	75.707138	334.568207	280.633545	43.324284	392.321594	303.898651	59.804276	276.979462	222.841888	764.447571	11.914161	237.624329	678.439880	16.896328	274.115845	675.205627	25.338165	206.050018	595.691650	29.049858	178.547348	477.137177	49.735252	199.979950	455.805786	159.547653	154.376450	99.095985	56.014256	170.855469	121.880768	140.977493	100.975159	58.835747	110.502831	310.719696	52.458096	132.916473	289.947510	51.102966	17.828310	156.955978	370.622223	23.936356	175.145721	285.894592	36.855110	148.653244	201.811264	38.020496	205.965698	286.492920	61.403496	380.294861	71.722908	69.503853	
